# xmcd
#
# Track frame offsets: 
#        150
#        12643
#        33082
#        48088
#        74210
#        88697
#
# Disc length: 1365 seconds
#
# Revision: 3
# Processed by: cddbd v1.5.2PL0 Copyright (c) Steve Scherf et al.
# Submitted via: ExactAudioCopy v0.99pb4
#
DISCID=4b055306
DTITLE=Son Volt - Afterglow 61 EP
DYEAR=2005
DGENRE=Alt. Rock
TTITLE0=Afterglow 61 (Radio Mix)
TTITLE1=Joe Citizen Blues (Non-album Track-Live)
TTITLE2=Bandages and Scars (Live)
TTITLE3=Medication (Live)
TTITLE4=Ipecac (Live)
TTITLE5=Gramophone (Acoustic)
EXTD=YEAR: 2005
EXTT0=
EXTT1=
EXTT2=
EXTT3=
EXTT4=
EXTT5=
PLAYORDER=
